<mxfile host="app.diagrams.net" modified="2022-01-05T03:30:42.036Z" agent="5.0 (Windows NT 10.0; Win64; x64) AppleWebKit/537.36 (KHTML, like Gecko) Chrome/96.0.4664.93 Safari/537.36 Edg/96.0.1054.53" etag="5UnhSCAHC6r5Qc3s5fiY" version="14.9.6" type="github">
  <diagram id="T08RTJmruMYxkAcvKGWH" name="Page-1">
    <mxGraphModel dx="1422" dy="794" grid="1" gridSize="10" guides="1" tooltips="1" connect="1" arrows="1" fold="1" page="1" pageScale="1" pageWidth="827" pageHeight="1169" math="0" shadow="0">
      <root>
        <mxCell id="0" />
        <mxCell id="1" parent="0" />
        <mxCell id="UIvYSROiSC9El-1xtjfO-5" value="" style="edgeStyle=orthogonalEdgeStyle;rounded=0;orthogonalLoop=1;jettySize=auto;html=1;" edge="1" parent="1" source="UIvYSROiSC9El-1xtjfO-3" target="UIvYSROiSC9El-1xtjfO-4">
          <mxGeometry relative="1" as="geometry" />
        </mxCell>
        <mxCell id="UIvYSROiSC9El-1xtjfO-11" value="consumer" style="edgeLabel;html=1;align=center;verticalAlign=middle;resizable=0;points=[];" vertex="1" connectable="0" parent="UIvYSROiSC9El-1xtjfO-5">
          <mxGeometry x="-0.2" y="1" relative="1" as="geometry">
            <mxPoint as="offset" />
          </mxGeometry>
        </mxCell>
        <mxCell id="UIvYSROiSC9El-1xtjfO-9" style="edgeStyle=orthogonalEdgeStyle;rounded=0;orthogonalLoop=1;jettySize=auto;html=1;exitX=1;exitY=0.5;exitDx=0;exitDy=0;" edge="1" parent="1" source="UIvYSROiSC9El-1xtjfO-3">
          <mxGeometry relative="1" as="geometry">
            <mxPoint x="400" y="200" as="targetPoint" />
          </mxGeometry>
        </mxCell>
        <mxCell id="UIvYSROiSC9El-1xtjfO-3" value="kafka-broker" style="rounded=1;arcSize=10;whiteSpace=wrap;html=1;align=center;dashed=1;fontSize=13;fontStyle=1" vertex="1" parent="1">
          <mxGeometry x="320" y="170" width="100" height="60" as="geometry" />
        </mxCell>
        <mxCell id="UIvYSROiSC9El-1xtjfO-4" value="tdf-client" style="rounded=1;whiteSpace=wrap;html=1;dashed=1;arcSize=10;fontStyle=1" vertex="1" parent="1">
          <mxGeometry x="530" y="170" width="120" height="60" as="geometry" />
        </mxCell>
        <mxCell id="UIvYSROiSC9El-1xtjfO-8" value="" style="edgeStyle=orthogonalEdgeStyle;rounded=0;orthogonalLoop=1;jettySize=auto;html=1;" edge="1" parent="1" source="UIvYSROiSC9El-1xtjfO-6" target="UIvYSROiSC9El-1xtjfO-3">
          <mxGeometry relative="1" as="geometry" />
        </mxCell>
        <mxCell id="UIvYSROiSC9El-1xtjfO-10" value="producer" style="edgeLabel;html=1;align=center;verticalAlign=middle;resizable=0;points=[];" vertex="1" connectable="0" parent="UIvYSROiSC9El-1xtjfO-8">
          <mxGeometry x="-0.1429" y="1" relative="1" as="geometry">
            <mxPoint as="offset" />
          </mxGeometry>
        </mxCell>
        <mxCell id="UIvYSROiSC9El-1xtjfO-6" value="tdf-broker" style="whiteSpace=wrap;html=1;rounded=1;dashed=1;arcSize=10;fontSize=13;fontStyle=1" vertex="1" parent="1">
          <mxGeometry x="60" y="170" width="120" height="60" as="geometry" />
        </mxCell>
      </root>
    </mxGraphModel>
  </diagram>
</mxfile>
